<svg width="25" height="25" viewBox="0 0 25 25" fill="none" xmlns="http://www.w3.org/2000/svg">
<path d="M19.2434 0L17.7804 5.19273L14.8545 6.71999L17.7804 8.24726L19.2434 12.8291L20.7064 8.24726L23.6323 6.71999L20.7064 5.19273L19.2434 0Z" fill="#D0D1D3"/>
<path d="M9.45281 4.05125L8.77759 6.75211L6.75195 7.42732L8.77759 8.10253L9.45281 10.8034L10.128 8.10253L12.1537 7.42732L10.128 6.75211L9.45281 4.05125Z" fill="#D0D1D3"/>
<path d="M-0.000244141 16.2056C-0.000244141 15.8327 0.302062 15.5304 0.674969 15.5304H2.70061C3.07353 15.5304 3.37582 15.8327 3.37582 16.2056V23.6299C3.37582 24.0028 3.07353 24.3051 2.70061 24.3051H0.674969C0.302062 24.3051 -0.000244141 24.0028 -0.000244141 23.6299V16.2056Z" fill="#D0D1D3"/>
<path d="M7.90327 15.6574C8.5325 15.3705 10.0704 15.6574 10.0704 15.6574L14.5445 16.6612C14.5445 16.6612 15.6631 17.0197 16.7117 17.0197C17.7604 17.0197 17.1335 18.4548 16.4321 18.9558C15.7307 19.4568 15.2204 19.4297 15.2204 19.4297L11.6084 19.386C11.6084 19.386 14.7543 19.9597 15.9427 20.0314C16.5448 20.0677 17.5773 19.644 18.7315 19.1704C19.8557 18.7091 21.0952 18.2005 22.1645 18.0236C24.3317 17.6651 24.6812 19.6011 23.9821 20.3182C23.2831 21.0352 17.6904 23.76 16.7117 24.1185C15.9453 24.3993 15.0181 24.3061 13.972 24.201C13.6824 24.1719 13.3835 24.1418 13.0765 24.1185C11.8548 24.0259 10.9213 23.7292 9.99711 23.4353C9.0065 23.1205 8.02684 22.809 6.71483 22.7561C6.27472 22.7384 5.24442 22.7929 4.72626 22.8232V16.8405C5.62152 16.522 7.43474 15.8709 7.90327 15.6574Z" fill="#D0D1D3"/>
</svg>
