<svg width="96" height="96" viewBox="0 0 96 96" fill="none" xmlns="http://www.w3.org/2000/svg">
<path d="M88 48C88 25.92 70.08 8 48 8C25.92 8 8 25.92 8 48C8 70.08 25.92 88 48 88" stroke="white" stroke-width="4" stroke-linecap="round" stroke-linejoin="round"/>
<path d="M32 12H36C28.2 35.36 28.2 60.64 36 84H32" stroke="white" stroke-width="4" stroke-linecap="round" stroke-linejoin="round"/>
<path d="M60 12C63.88 23.68 65.84 35.84 65.84 48" stroke="white" stroke-width="4" stroke-linecap="round" stroke-linejoin="round"/>
<path d="M12 64V60C23.68 63.88 35.84 65.8401 48 65.8401" stroke="white" stroke-width="4" stroke-linecap="round" stroke-linejoin="round"/>
<path d="M12 35.9999C35.36 28.1999 60.64 28.1999 84 35.9999" stroke="white" stroke-width="4" stroke-linecap="round" stroke-linejoin="round"/>
<path d="M78 58.8C76.52 58.36 74.84 58.0801 73 58.0801C64.72 58.0801 58.04 64.8 58.04 73.04C58.04 81.32 64.76 88 73 88C81.24 88 87.96 81.28 87.96 73.04C87.96 69.96 87.0399 67.08 85.4399 64.72" stroke="white" stroke-width="4" stroke-linecap="round" stroke-linejoin="round"/>
<path d="M80.16 59.2L75.16 53.48" stroke="white" stroke-width="4" stroke-linecap="round" stroke-linejoin="round"/>
<path d="M80.16 59.2L74.3199 63.4399" stroke="white" stroke-width="4" stroke-linecap="round" stroke-linejoin="round"/>
</svg>
