<svg width="27" height="27" viewBox="0 0 27 27" fill="none" xmlns="http://www.w3.org/2000/svg">
<path d="M10.1537 11.2691C11.3857 11.2691 12.3845 10.2703 12.3845 9.03825C12.3845 7.80617 11.3857 6.80737 10.1537 6.80737C8.92159 6.80737 7.92279 7.80617 7.92279 9.03825C7.92279 10.2703 8.92159 11.2691 10.1537 11.2691Z" stroke="white" stroke-linecap="round" stroke-linejoin="round"/>
<path d="M14.6155 2.34563H10.1537C4.57652 2.34563 2.34564 4.5765 2.34564 10.1537V16.8463C2.34564 22.4235 4.57652 24.6544 10.1537 24.6544H16.8463C22.4235 24.6544 24.6544 22.4235 24.6544 16.8463V11.2691" stroke="white" stroke-linecap="round" stroke-linejoin="round"/>
<path d="M17.6829 5.69193H23.8178" stroke="white" stroke-linecap="round"/>
<path d="M20.7504 8.75939V2.62448" stroke="white" stroke-linecap="round"/>
<path d="M3.09296 21.2523L8.59206 17.5602C9.47326 16.969 10.7449 17.0359 11.5368 17.7163L11.9049 18.0398C12.775 18.7872 14.1804 18.7872 15.0504 18.0398L19.6907 14.0577C20.5607 13.3104 21.9662 13.3104 22.8362 14.0577L24.6544 15.6193" stroke="white" stroke-linecap="round" stroke-linejoin="round"/>
</svg>
