<svg width="22" height="18" viewBox="0 0 22 18" fill="none" xmlns="http://www.w3.org/2000/svg">
<path d="M18.6239 2.01114C17.2217 1.36775 15.7181 0.893725 14.1459 0.622233C14.1173 0.616993 14.0887 0.630087 14.0739 0.656277C13.8805 1.00022 13.6663 1.44893 13.5163 1.80161C11.8254 1.54846 10.1431 1.54846 8.48679 1.80161C8.33676 1.44109 8.11478 1.00022 7.92053 0.656277C7.90578 0.630961 7.87718 0.617867 7.84855 0.622233C6.27725 0.892857 4.7736 1.36688 3.37052 2.01114C3.35838 2.01638 3.34797 2.02511 3.34106 2.03645C0.488942 6.29745 -0.292371 10.4537 0.0909151 14.5585C0.0926494 14.5785 0.103922 14.5977 0.119532 14.61C2.00127 15.9919 3.82406 16.8308 5.61301 17.3869C5.64164 17.3956 5.67197 17.3851 5.69019 17.3616C6.11337 16.7837 6.49059 16.1743 6.81402 15.5336C6.83311 15.496 6.81489 15.4515 6.77588 15.4367C6.17754 15.2097 5.6078 14.933 5.05975 14.6187C5.0164 14.5934 5.01293 14.5314 5.05281 14.5017C5.16814 14.4153 5.2835 14.3253 5.39363 14.2346C5.41355 14.218 5.44131 14.2145 5.46474 14.225C9.06518 15.8688 12.9631 15.8688 16.521 14.225C16.5445 14.2136 16.5722 14.2171 16.593 14.2337C16.7032 14.3245 16.8185 14.4153 16.9347 14.5017C16.9746 14.5314 16.972 14.5934 16.9286 14.6187C16.3806 14.9391 15.8108 15.2097 15.2116 15.4358C15.1726 15.4506 15.1553 15.496 15.1744 15.5336C15.5047 16.1734 15.882 16.7828 16.2973 17.3607C16.3147 17.3851 16.3459 17.3956 16.3745 17.3869C18.1721 16.8308 19.9949 15.9919 21.8766 14.61C21.8931 14.5977 21.9035 14.5794 21.9053 14.5593C22.364 9.8138 21.1369 5.69162 18.6525 2.03732C18.6465 2.02511 18.6361 2.01638 18.6239 2.01114Z" fill="#EC97B3"/>
<path d="M5.37451 9.84174C5.37451 11.0639 6.26768 12.0591 7.35166 12.0591C8.45293 12.0591 9.32878 11.0639 9.32878 9.84174C9.34613 8.6283 8.46161 7.62439 7.35166 7.62439C6.25036 7.62439 5.37451 8.61956 5.37451 9.84174Z" fill="#12151B"/>
<path d="M12.6847 9.84174C12.6847 11.0639 13.5779 12.0591 14.6618 12.0591C15.7718 12.0591 16.639 11.0639 16.639 9.84174C16.6563 8.6283 15.7718 7.62439 14.6618 7.62439C13.5605 7.62439 12.6847 8.61956 12.6847 9.84174Z" fill="#12151B"/>
</svg>
