<svg xmlns="http://www.w3.org/2000/svg" width="28.571" height="25" viewBox="0 0 28.571 25">
  <path id="th-list-solid" d="M8.333,42.268v4.464a1.339,1.339,0,0,1-1.339,1.339H1.339A1.339,1.339,0,0,1,0,46.732V42.268a1.339,1.339,0,0,1,1.339-1.339H6.994a1.339,1.339,0,0,1,1.339,1.339ZM0,51.2v4.464A1.339,1.339,0,0,0,1.339,57H6.994a1.339,1.339,0,0,0,1.339-1.339V51.2a1.339,1.339,0,0,0-1.339-1.339H1.339A1.339,1.339,0,0,0,0,51.2ZM6.994,32H1.339A1.339,1.339,0,0,0,0,33.339V37.8a1.339,1.339,0,0,0,1.339,1.339H6.994A1.339,1.339,0,0,0,8.333,37.8V33.339A1.339,1.339,0,0,0,6.994,32Zm4.464,25H27.232a1.339,1.339,0,0,0,1.339-1.339V51.2a1.339,1.339,0,0,0-1.339-1.339H11.458A1.339,1.339,0,0,0,10.119,51.2v4.464A1.339,1.339,0,0,0,11.458,57ZM10.119,33.339V37.8a1.339,1.339,0,0,0,1.339,1.339H27.232A1.339,1.339,0,0,0,28.571,37.8V33.339A1.339,1.339,0,0,0,27.232,32H11.458A1.339,1.339,0,0,0,10.119,33.339Zm1.339,14.732H27.232a1.339,1.339,0,0,0,1.339-1.339V42.268a1.339,1.339,0,0,0-1.339-1.339H11.458a1.339,1.339,0,0,0-1.339,1.339v4.464a1.339,1.339,0,0,0,1.339,1.339Z" transform="translate(0 -32)" fill="#a2a2a2"/>
</svg>
