<svg width="18" height="18" viewBox="0 0 18 18" fill="none" xmlns="http://www.w3.org/2000/svg">
<path d="M8.07397 1.92586C8.58508 1.48882 9.42211 1.48882 9.94063 1.92586L11.111 2.93335C11.3332 3.12594 11.748 3.28147 12.0443 3.28147H13.3036C14.0888 3.28147 14.7332 3.92587 14.7332 4.71105V5.97037C14.7332 6.25926 14.8888 6.68149 15.0814 6.90371L16.0888 8.07405C16.5258 8.58516 16.5258 9.42221 16.0888 9.94073L15.0814 11.1111C14.8888 11.3333 14.7332 11.7481 14.7332 12.0444V13.3037C14.7332 14.0889 14.0888 14.7333 13.3036 14.7333H12.0443C11.7554 14.7333 11.3332 14.8888 11.111 15.0814L9.94063 16.0888C9.42952 16.5259 8.59249 16.5259 8.07397 16.0888L6.90361 15.0814C6.68139 14.8888 6.26656 14.7333 5.97027 14.7333H4.68878C3.90359 14.7333 3.25915 14.0889 3.25915 13.3037V12.037C3.25915 11.7481 3.1036 11.3333 2.91842 11.1111L1.91841 9.93331C1.48878 9.4222 1.48878 8.59257 1.91841 8.08146L2.91842 6.90371C3.1036 6.68149 3.25915 6.26667 3.25915 5.97778V4.71105C3.25915 3.92587 3.90359 3.28147 4.68878 3.28147H5.97027C6.25916 3.28147 6.68139 3.12594 6.90361 2.93335L8.07397 1.92586Z" stroke="white" stroke-width="0.75" stroke-linecap="round" stroke-linejoin="round"/>
<path d="M7.43719 11.0888L8.51125 11.9184C8.65199 12.0592 8.96312 12.1259 9.17052 12.1259H10.4816C10.8964 12.1259 11.3483 11.8148 11.452 11.3999L12.2816 8.86658C12.452 8.38509 12.1409 7.96289 11.6224 7.96289H10.2372C10.0298 7.96289 9.85941 7.79257 9.88904 7.54813L10.0594 6.43702C10.1261 6.1259 9.91867 5.77773 9.60756 5.67403C9.33348 5.57033 8.98534 5.71103 8.8446 5.91844L7.42236 8.02954" stroke="white" stroke-width="0.75" stroke-miterlimit="10"/>
<path d="M5.66675 11.0888V7.6962C5.66675 7.20731 5.87416 7.03693 6.36305 7.03693H6.7112C7.19268 7.03693 7.40749 7.20731 7.40749 7.6962V11.0888C7.40749 11.5702 7.20008 11.748 6.7112 11.748H6.36305C5.87416 11.748 5.66675 11.5776 5.66675 11.0888Z" stroke="white" stroke-width="0.75" stroke-linecap="round" stroke-linejoin="round"/>
</svg>
