<svg xmlns="http://www.w3.org/2000/svg" width="28.571" height="25" viewBox="0 0 28.571 25">
  <path id="sign-out-alt-solid" d="M28.176,77.585,18.652,88.52c-.85.976-2.324.293-2.324-1.107V81.165H8.617A1.468,1.468,0,0,1,7.257,79.6V73.354a1.468,1.468,0,0,1,1.361-1.562h7.71V65.542c0-1.393,1.468-2.083,2.324-1.107l9.524,10.936A1.746,1.746,0,0,1,28.176,77.585ZM10.885,88.195v-2.6a.738.738,0,0,0-.68-.781H5.442a1.96,1.96,0,0,1-1.814-2.083v-12.5a1.96,1.96,0,0,1,1.814-2.083H10.2a.738.738,0,0,0,.68-.781v-2.6a.738.738,0,0,0-.68-.781H5.442c-3,0-5.442,2.8-5.442,6.249v12.5c0,3.45,2.438,6.249,5.442,6.249H10.2A.738.738,0,0,0,10.885,88.195Z" transform="translate(0 -63.979)" fill="#a2a2a2"/>
</svg>
