<svg width="24" height="24" viewBox="0 0 24 24" fill="none" xmlns="http://www.w3.org/2000/svg">
<path d="M16.92 22C14.12 22 11.84 19.73 11.84 16.92C11.84 14.12 14.11 11.84 16.92 11.84C19.72 11.84 22 14.11 22 16.92C22 19.73 19.73 22 16.92 22Z" stroke="white" stroke-width="1.5" stroke-linecap="round" stroke-linejoin="round"/>
<path d="M5.02 2H8.94C11.01 2 12.01 3.00002 11.96 5.02002V8.94C12.01 11.01 11.01 12.01 8.94 11.96H5.02C3 12 2 11 2 8.92999V5.01001C2 3.00001 3 2 5.02 2Z" stroke="white" stroke-width="1.5" stroke-linecap="round" stroke-linejoin="round"/>
<path d="M2 15C2 18.87 5.13 22 9 22L7.95 20.25" stroke="white" stroke-width="1.5" stroke-linecap="round" stroke-linejoin="round"/>
<path d="M22 9C22 5.13 18.87 2 15 2L16.05 3.75" stroke="white" stroke-width="1.5" stroke-linecap="round" stroke-linejoin="round"/>
<path d="M4.66748 5.79251V5.33751C4.66748 5.05001 4.89998 4.82001 5.18498 4.82001H8.81498C9.10248 4.82001 9.33248 5.05251 9.33248 5.33751V5.79251" stroke="white" stroke-width="1.5" stroke-linecap="round" stroke-linejoin="round"/>
<path d="M7 9.18V5.0275" stroke="white" stroke-width="1.5" stroke-linecap="round" stroke-linejoin="round"/>
<path d="M6.01501 9.17999H7.98501" stroke="white" stroke-width="1.5" stroke-linecap="round" stroke-linejoin="round"/>
<path d="M16.125 16.5833C16.6313 16.5833 17.0417 16.1729 17.0417 15.6667C17.0417 15.1604 16.6313 14.75 16.125 14.75C15.6188 14.75 15.2084 15.1604 15.2084 15.6667C15.2084 16.1729 15.6188 16.5833 16.125 16.5833Z" stroke="white" stroke-linecap="round" stroke-linejoin="round"/>
<path d="M13.2238 20.6854L15.4833 19.1683C15.8454 18.9254 16.3679 18.9529 16.6933 19.2325L16.8446 19.3654C17.2021 19.6725 17.7796 19.6725 18.1371 19.3654L20.0438 17.7292C20.4013 17.4221 20.9788 17.4221 21.3363 17.7292L22.0833 18.3708" stroke="white" stroke-linecap="round" stroke-linejoin="round"/>
</svg>
